<svg width="39" height="57" fill="none" xmlns="http://www.w3.org/2000/svg"><path fill-rule="evenodd" clip-rule="evenodd" d="m2.35 15.427.066 7.567a22.514 22.514 0 0 1 5.8-10.568c.234-.266.502-.5.77-.732L2.35 15.427Zm34.427 31.332c.77 0 1.374.567 1.407 1.3 0 .568-.368 1.068-.871 1.268l-11.867 6.966a1.182 1.182 0 0 1-1.24.033l-11.298-6.6-.033-.032L.64 42.826a1.175 1.175 0 0 1-.604-1.033l.1-13.1-.133-13.866c-.034-.433.201-.867.602-1.1l11.466-6.466L24.105.193c.369-.234.838-.267 1.24-.033l11.297 6.599h.033c.437.234.705.634.705 1.133a1.32 1.32 0 0 1-1.341 1.334 1.5 1.5 0 0 1-.871-.266 21.734 21.734 0 0 0-5.13-1.967 21.822 21.822 0 0 0-5.699-.633c-6.068.133-11.498 2.666-15.386 6.7A21.822 21.822 0 0 0 2.82 28.627a21.707 21.707 0 0 0 6.737 15.3 22.08 22.08 0 0 0 15.655 6.1 21.585 21.585 0 0 0 5.666-.867 23.418 23.418 0 0 0 5.23-2.266l.032-.034c.168-.034.402-.1.638-.1v-.001ZM2.449 33.594l-.066 7.568 6.67 3.733-.167-.168C5.769 41.73 3.49 37.894 2.449 33.594Zm15.79 16.532 6.536 3.833 6.571-3.867-.236.067c-1.91.567-3.92.867-5.932.9a21.953 21.953 0 0 1-6.94-.933ZM31.278 6.36l-6.571-3.834-6.57 3.866a24.817 24.817 0 0 1 6.134-.967c2.01-.03 4.015.195 5.968.667.368.1.704.165 1.039.267v.001Z" fill="#0B7572"/></svg>